rotated_Sprint_08550001_forces_filt10Hz.mot
version=1
nRows=53
nColumns=19
inDegrees=yes
endheader
time	R_ground_force_vx	R_ground_force_vy	R_ground_force_vz	R_ground_force_px	R_ground_force_py	R_ground_force_pz	R_ground_torque_x	R_ground_torque_y	R_ground_torque_z	L_ground_force_vx	L_ground_force_vy	L_ground_force_vz	L_ground_force_px	L_ground_force_py	L_ground_force_pz	L_ground_torque_x	L_ground_torque_y	L_ground_torque_z	
0.597000	  0.000000	  0.000000	  0.000000	  0.162946	  0.000000	 -0.320506	  0.000000	  0.000000	  0.000000	  0.000000	  0.000000	  0.000000	  1.213822	  0.000000	 -0.184970	  0.000000	  0.000000	  0.000000
0.597500	  0.000000	  0.000000	  0.000000	  0.162472	  0.000000	 -0.323076	  0.000000	  0.000000	  0.000000	  0.000000	  0.000000	  0.000000	  1.214149	  0.000000	 -0.184419	  0.000000	  0.000000	  0.000000
0.598000	  0.000000	  0.000000	  0.000000	  0.161999	  0.000000	 -0.325646	  0.000000	  0.000000	  0.000000	  0.000000	  0.000000	  0.000000	  1.214477	  0.000000	 -0.183869	  0.000000	  0.000000	  0.000000
0.598500	  0.000000	  0.000000	  0.000000	  0.161525	  0.000000	 -0.328216	  0.000000	  0.000000	  0.000000	  0.000000	  0.000000	  0.000000	  1.214804	  0.000000	 -0.183319	  0.000000	  0.000000	  0.000000
0.599000	  0.000000	  0.000000	  0.000000	  0.161051	  0.000000	 -0.330785	  0.000000	  0.000000	  0.000000	  0.000000	  0.000000	  0.000000	  1.215131	  0.000000	 -0.182769	  0.000000	  0.000000	  0.000000
0.599500	  0.000000	  0.000000	  0.000000	  0.160577	  0.000000	 -0.333355	  0.000000	  0.000000	  0.000000	  0.000000	  0.000000	  0.000000	  1.215459	  0.000000	 -0.182218	  0.000000	  0.000000	  0.000000
0.600000	  0.000000	  0.000000	  0.000000	  0.160103	  0.000000	 -0.335925	  0.000000	  0.000000	  0.000000	  0.000000	  0.000000	  0.000000	  1.215786	  0.000000	 -0.181668	  0.000000	  0.000000	  0.000000
0.600500	  0.000000	  0.000000	  0.000000	  0.160116	  0.000000	 -0.338337	  0.000000	  0.000000	  0.000000	  0.000000	  0.000000	  0.000000	  1.215755	  0.000000	 -0.181217	  0.000000	  0.000000	  0.000000
0.601000	  0.000000	  0.000000	  0.000000	  0.160129	  0.000000	 -0.340749	  0.000000	  0.000000	  0.000000	  0.000000	  0.000000	  0.000000	  1.215723	  0.000000	 -0.180765	  0.000000	  0.000000	  0.000000
0.601500	  0.000000	  0.000000	  0.000000	  0.160142	  0.000000	 -0.343162	  0.000000	  0.000000	  0.000000	  0.000000	  0.000000	  0.000000	  1.215692	  0.000000	 -0.180314	  0.000000	  0.000000	  0.000000
0.602000	  0.000000	  0.000000	  0.000000	  0.160155	  0.000000	 -0.345574	  0.000000	  0.000000	  0.000000	  0.000000	  0.000000	  0.000000	  1.215660	  0.000000	 -0.179863	  0.000000	  0.000000	  0.000000
0.602500	  0.000000	  0.000000	  0.000000	  0.160168	  0.000000	 -0.347986	  0.000000	  0.000000	  0.000000	  0.000000	  0.000000	  0.000000	  1.215629	  0.000000	 -0.179411	  0.000000	  0.000000	  0.000000
0.603000	  0.000000	  0.000000	  0.000000	  0.160180	  0.000000	 -0.350398	  0.000000	  0.000000	  0.000000	  0.000000	  0.000000	  0.000000	  1.215598	  0.000000	 -0.178960	  0.000000	  0.000000	  0.000000
0.603500	  0.000000	  0.000000	  0.000000	  0.160193	  0.000000	 -0.352810	  0.000000	  0.000000	  0.000000	  0.000000	  0.000000	  0.000000	  1.215566	  0.000000	 -0.178509	  0.000000	  0.000000	  0.000000
0.604000	  0.000000	  0.000000	  0.000000	  0.160206	  0.000000	 -0.355223	  0.000000	  0.000000	  0.000000	  0.000000	  0.000000	  0.000000	  1.215535	  0.000000	 -0.178058	  0.000000	  0.000000	  0.000000
0.604500	  0.000000	  0.000000	  0.000000	  0.160219	  0.000000	 -0.357635	  0.000000	  0.000000	  0.000000	  0.000000	  0.000000	  0.000000	  1.215503	  0.000000	 -0.177606	  0.000000	  0.000000	  0.000000
0.605000	  0.000000	  0.000000	  0.000000	  0.160232	  0.000000	 -0.360047	  0.000000	  0.000000	  0.000000	  0.000000	  0.000000	  0.000000	  1.215472	  0.000000	 -0.177155	  0.000000	  0.000000	  0.000000
0.605500	  0.000000	  0.000000	  0.000000	  0.160941	  0.000000	 -0.362452	  0.000000	  0.000000	  0.000000	  0.000000	  0.000000	  0.000000	  1.215146	  0.000000	 -0.176756	  0.000000	  0.000000	  0.000000
0.606000	  0.000000	  0.000000	  0.000000	  0.161650	  0.000000	 -0.364856	  0.000000	  0.000000	  0.000000	  0.000000	  0.000000	  0.000000	  1.214821	  0.000000	 -0.176358	  0.000000	  0.000000	  0.000000
0.606500	  0.000000	  0.000000	  0.000000	  0.162359	  0.000000	 -0.367261	  0.000000	  0.000000	  0.000000	  0.000000	  0.000000	  0.000000	  1.214495	  0.000000	 -0.175959	  0.000000	  0.000000	  0.000000
0.607000	  0.000000	  0.000000	  0.000000	  0.163068	  0.000000	 -0.369665	  0.000000	  0.000000	  0.000000	  0.000000	  0.000000	  0.000000	  1.214169	  0.000000	 -0.175561	  0.000000	  0.000000	  0.000000
0.607500	  0.000000	  0.000000	  0.000000	  0.163778	  0.000000	 -0.372070	  0.000000	  0.000000	  0.000000	  0.000000	  0.000000	  0.000000	  1.213844	  0.000000	 -0.175162	  0.000000	  0.000000	  0.000000
0.608000	  0.000000	  0.000000	  0.000000	  0.164487	  0.000000	 -0.374475	  0.000000	  0.000000	  0.000000	  0.000000	  0.000000	  0.000000	  1.213518	  0.000000	 -0.174764	  0.000000	  0.000000	  0.000000
0.608500	  0.000000	  0.000000	  0.000000	  0.165196	  0.000000	 -0.376879	  0.000000	  0.000000	  0.000000	  0.000000	  0.000000	  0.000000	  1.213192	  0.000000	 -0.174365	  0.000000	  0.000000	  0.000000
0.609000	  0.000000	  0.000000	  0.000000	  0.165905	  0.000000	 -0.379284	  0.000000	  0.000000	  0.000000	  0.000000	  0.000000	  0.000000	  1.212866	  0.000000	 -0.173967	  0.000000	  0.000000	  0.000000
0.609500	  0.000000	  0.000000	  0.000000	  0.166614	  0.000000	 -0.381688	  0.000000	  0.000000	  0.000000	  0.000000	  0.000000	  0.000000	  1.212541	  0.000000	 -0.173568	  0.000000	  0.000000	  0.000000
0.610000	  0.000000	  0.000000	  0.000000	  0.167323	  0.000000	 -0.384093	  0.000000	  0.000000	  0.000000	  0.000000	  0.000000	  0.000000	  1.212215	  0.000000	 -0.173170	  0.000000	  0.000000	  0.000000
0.610500	  0.000000	  0.000000	  0.000000	  0.167951	  0.000000	 -0.386235	  0.000000	  0.000000	  0.000000	  0.000000	  0.000000	  0.000000	  1.211546	  0.000000	 -0.172795	  0.000000	  0.000000	  0.000000
0.611000	  0.000000	  0.000000	  0.000000	  0.168579	  0.000000	 -0.388377	  0.000000	  0.000000	  0.000000	  0.000000	  0.000000	  0.000000	  1.210877	  0.000000	 -0.172420	  0.000000	  0.000000	  0.000000
0.611500	  0.000000	  0.000000	  0.000000	  0.169207	  0.000000	 -0.390518	  0.000000	  0.000000	  0.000000	  0.000000	  0.000000	  0.000000	  1.210207	  0.000000	 -0.172046	  0.000000	  0.000000	  0.000000
0.612000	  0.000000	  0.000000	  0.000000	  0.169835	  0.000000	 -0.392660	  0.000000	  0.000000	  0.000000	  0.000000	  0.000000	  0.000000	  1.209538	  0.000000	 -0.171671	  0.000000	  0.000000	  0.000000
0.612500	  0.000000	  0.000000	  0.000000	  0.170464	  0.000000	 -0.394802	  0.000000	  0.000000	  0.000000	  0.000000	  0.000000	  0.000000	  1.208869	  0.000000	 -0.171296	  0.000000	  0.000000	  0.000000
0.613000	  0.000000	  0.000000	  0.000000	  0.171092	  0.000000	 -0.396944	  0.000000	  0.000000	  0.000000	  0.000000	  0.000000	  0.000000	  1.208200	  0.000000	 -0.170921	  0.000000	  0.000000	  0.000000
0.613500	  0.000000	  0.000000	  0.000000	  0.171720	  0.000000	 -0.399086	  0.000000	  0.000000	  0.000000	  0.000000	  0.000000	  0.000000	  1.207531	  0.000000	 -0.170546	  0.000000	  0.000000	  0.000000
0.614000	  0.000000	  0.000000	  0.000000	  0.172348	  0.000000	 -0.401227	  0.000000	  0.000000	  0.000000	  0.000000	  0.000000	  0.000000	  1.206861	  0.000000	 -0.170172	  0.000000	  0.000000	  0.000000
0.614500	  0.000000	  0.000000	  0.000000	  0.172976	  0.000000	 -0.403369	  0.000000	  0.000000	  0.000000	  0.000000	  0.000000	  0.000000	  1.206192	  0.000000	 -0.169797	  0.000000	  0.000000	  0.000000
0.615000	  0.000000	  0.000000	  0.000000	  0.173604	  0.000000	 -0.405511	  0.000000	  0.000000	  0.000000	  0.000000	  0.000000	  0.000000	  1.205523	  0.000000	 -0.169422	  0.000000	  0.000000	  0.000000
0.615500	  0.000000	  0.000000	  0.000000	  0.174576	  0.000000	 -0.407695	  0.000000	  0.000000	  0.000000	  0.000000	  0.000000	  0.000000	  1.204561	  0.000000	 -0.169003	  0.000000	  0.000000	  0.000000
0.616000	  0.000000	  0.000000	  0.000000	  0.175548	  0.000000	 -0.409879	  0.000000	  0.000000	  0.000000	  0.000000	  0.000000	  0.000000	  1.203598	  0.000000	 -0.168583	  0.000000	  0.000000	  0.000000
0.616500	  0.000000	  0.000000	  0.000000	  0.176520	  0.000000	 -0.412063	  0.000000	  0.000000	  0.000000	  0.000000	  0.000000	  0.000000	  1.202636	  0.000000	 -0.168164	  0.000000	  0.000000	  0.000000
0.617000	  0.000000	  0.000000	  0.000000	  0.177492	  0.000000	 -0.414247	  0.000000	  0.000000	  0.000000	  0.000000	  0.000000	  0.000000	  1.201674	  0.000000	 -0.167745	  0.000000	  0.000000	  0.000000
0.617500	  0.000000	  0.000000	  0.000000	  0.178465	  0.000000	 -0.416431	  0.000000	  0.000000	  0.000000	  0.000000	  0.000000	  0.000000	  1.200711	  0.000000	 -0.167325	  0.000000	  0.000000	  0.000000
0.618000	  0.000000	  0.000000	  0.000000	  0.179437	  0.000000	 -0.418615	  0.000000	  0.000000	  0.000000	  0.000000	  0.000000	  0.000000	  1.199749	  0.000000	 -0.166906	  0.000000	  0.000000	  0.000000
0.618500	  0.000000	  0.000000	  0.000000	  0.180409	  0.000000	 -0.420799	  0.000000	  0.000000	  0.000000	  0.000000	  0.000000	  0.000000	  1.198787	  0.000000	 -0.166487	  0.000000	  0.000000	  0.000000
0.619000	  0.000000	  0.000000	  0.000000	  0.181381	  0.000000	 -0.422983	  0.000000	  0.000000	  0.000000	  0.000000	  0.000000	  0.000000	  1.197825	  0.000000	 -0.166068	  0.000000	  0.000000	  0.000000
0.619500	  0.000000	  0.000000	  0.000000	  0.182353	  0.000000	 -0.425167	  0.000000	  0.000000	  0.000000	  0.000000	  0.000000	  0.000000	  1.196862	  0.000000	 -0.165648	  0.000000	  0.000000	  0.000000
0.620000	  0.000000	  0.000000	  0.000000	  0.183325	  0.000000	 -0.427351	  0.000000	  0.000000	  0.000000	  0.000000	  0.000000	  0.000000	  1.195900	  0.000000	 -0.165229	  0.000000	  0.000000	  0.000000
0.620500	  0.000000	  0.000000	  0.000000	  0.184459	  0.000000	 -0.429295	  0.000000	  0.000000	  0.000000	  0.000000	  0.000000	  0.000000	  1.194628	  0.000000	 -0.164734	  0.000000	  0.000000	  0.000000
0.621000	  0.000000	  0.000000	  0.000000	  0.185593	  0.000000	 -0.431240	  0.000000	  0.000000	  0.000000	  0.000000	  0.000000	  0.000000	  1.193356	  0.000000	 -0.164239	  0.000000	  0.000000	  0.000000
0.621500	  0.000000	  0.000000	  0.000000	  0.186726	  0.000000	 -0.433184	  0.000000	  0.000000	  0.000000	  0.000000	  0.000000	  0.000000	  1.192084	  0.000000	 -0.163744	  0.000000	  0.000000	  0.000000
0.622000	  0.000000	  0.000000	  0.000000	  0.187860	  0.000000	 -0.435128	  0.000000	  0.000000	  0.000000	  0.000000	  0.000000	  0.000000	  1.190812	  0.000000	 -0.163249	  0.000000	  0.000000	  0.000000
0.622500	  0.000000	  0.000000	  0.000000	  0.188994	  0.000000	 -0.437073	  0.000000	  0.000000	  0.000000	  0.000000	  0.000000	  0.000000	  1.189539	  0.000000	 -0.162754	  0.000000	  0.000000	  0.000000
0.623000	  0.000000	  0.000000	  0.000000	  0.190128	  0.000000	 -0.439017	  0.000000	  0.000000	  0.000000	  0.000000	  0.000000	  0.000000	  1.188267	  0.000000	 -0.162259	  0.000000	  0.000000	  0.000000
